<?xml version="1.0" encoding="UTF-8" standalone="no"?>
<!-- Created with Inkscape (http://www.inkscape.org/) -->

<svg
   version="1.1"
   id="svg1"
   width="512"
   height="512"
   viewBox="0 0 512 512"
   sodipodi:docname="512x512-S.svg"
   inkscape:version="1.4.2 (2aeb623e1d, 2025-05-12)"
   xmlns:inkscape="http://www.inkscape.org/namespaces/inkscape"
   xmlns:sodipodi="http://sodipodi.sourceforge.net/DTD/sodipodi-0.dtd"
   xmlns="http://www.w3.org/2000/svg"
   xmlns:svg="http://www.w3.org/2000/svg">
  <defs
     id="defs1">
    <inkscape:perspective
       sodipodi:type="inkscape:persp3d"
       inkscape:vp_x="0 : 256 : 1"
       inkscape:vp_y="0 : 1000 : 0"
       inkscape:vp_z="512 : 256 : 1"
       inkscape:persp3d-origin="256 : 170.66667 : 1"
       id="perspective1" />
  </defs>
  <sodipodi:namedview
     id="namedview1"
     pagecolor="#ffffff"
     bordercolor="#000000"
     borderopacity="0.25"
     inkscape:showpageshadow="2"
     inkscape:pageopacity="0.0"
     inkscape:pagecheckerboard="0"
     inkscape:deskcolor="#d1d1d1"
     inkscape:zoom="0.79199219"
     inkscape:cx="343.43773"
     inkscape:cy="224.11837"
     inkscape:window-width="1874"
     inkscape:window-height="1016"
     inkscape:window-x="0"
     inkscape:window-y="0"
     inkscape:window-maximized="1"
     inkscape:current-layer="g1" />
  <g
     inkscape:groupmode="layer"
     inkscape:label="Image"
     id="g1"
     transform="translate(-424.84135,-287.44818)">
    <path
       style="fill:#000000"
       d="m 654.26578,719.70116 c -41.80399,-5.53188 -78.28456,-21.85321 -96.29404,-43.08177 -21.68315,-25.55889 -18.67712,-58.32837 7.59121,-82.75353 7.37231,-6.85502 19.385,-15.30106 27.82546,-19.5639 4.53704,-2.29143 20.19739,-9.02964 20.98588,-9.02964 0.24443,0 -2.49614,3.04588 -6.09014,6.76863 -11.21828,11.62012 -19.27802,26.23963 -21.62826,39.23137 -6.21439,34.35205 23.43558,69.80503 71.83401,85.89318 15.91476,5.29023 29.41976,7.43321 47.00068,7.45808 20.91611,0.0296 31.89135,-2.29374 48,-10.16103 9.32613,-4.55477 20.32494,-15.10105 24.19293,-23.19754 9.19931,-19.25599 3.4125,-39.76451 -16.57836,-58.75387 -14.86631,-14.12154 -29.86876,-23.25131 -78.11457,-47.53678 -55.051,-27.711 -74.90669,-40.13869 -92.98933,-58.20204 -11.12755,-11.1157 -17.89099,-21.68255 -21.76208,-34 -2.9413,-9.35896 -3.1131,-28.01476 -0.34072,-37 8.69432,-28.1782 33.36706,-50.32022 69.12305,-62.03302 51.30032,-16.80473 114.49646,-6.32053 143.73554,23.84566 6.77792,6.99283 13.21885,19.22378 14.84372,28.18736 1.95387,10.77852 -0.54639,23.74341 -6.94254,36 -4.42417,8.4778 -17.25983,21.7172 -27.94361,28.8226 -6.21666,4.13447 -31.2852,16.94956 -31.91814,16.31662 -0.11949,-0.11949 3.47531,-4.0429 7.98843,-8.71869 13.48432,-13.97034 19.39607,-26.42222 20.4309,-43.03341 1.57436,-25.27177 -12.81629,-47.84576 -39.25105,-61.57141 -29.64031,-15.39007 -67.17715,-15.87859 -92.204,-1.19999 -8.5353,5.00607 -18.33457,15.16036 -22.08418,22.88428 -11.38861,23.45969 -3.39069,47.04914 23.25808,68.59855 14.66429,11.8582 24.36776,17.35729 80.05593,45.36882 55.44698,27.8902 72.41614,38.51671 89.5,56.04713 17.61473,18.07515 24.27197,36.48267 20.68982,57.20808 -2.59387,15.00748 -8.93321,26.4631 -21.87516,39.5299 -19.7303,19.92065 -48.28172,32.85202 -83.43016,37.78679 -13.09948,1.83914 -43.31425,1.78122 -57.6093,-0.11043 z"
       id="path1"
       sodipodi:nodetypes="ssssssssssssssssssssssssssssssssss" />
  </g>
</svg>
